<svg width="70" height="64" viewBox="0 0 70 64" fill="none" xmlns="http://www.w3.org/2000/svg">
<rect x="0.5" y="1.32812" width="69" height="62" stroke="#2C223A"/>
<path fill-rule="evenodd" clip-rule="evenodd" d="M39.3333 20.9946H30.6666C27.0768 20.9946 24.1666 23.9048 24.1666 27.4946V36.1613C24.1666 39.7511 27.0768 42.6613 30.6666 42.6613H39.3333C42.9231 42.6613 45.8333 39.7511 45.8333 36.1613V27.4946C45.8333 23.9048 42.9231 20.9946 39.3333 20.9946ZM26.3333 27.4946C26.3333 25.1014 28.2734 23.1613 30.6666 23.1613H39.3333C41.7265 23.1613 43.6666 25.1014 43.6666 27.4946V36.1613C43.6666 38.5545 41.7265 40.4946 39.3333 40.4946H30.6666C28.2734 40.4946 26.3333 38.5545 26.3333 36.1613V27.4946ZM35 37.2446C32.0084 37.2446 29.5833 34.8195 29.5833 31.828C29.5833 28.8364 32.0084 26.4113 35 26.4113C37.9915 26.4113 40.4166 28.8364 40.4166 31.828C40.4166 34.8195 37.9915 37.2446 35 37.2446ZM35 35.078C36.7949 35.078 38.25 33.6229 38.25 31.828C38.25 30.033 36.7949 28.578 35 28.578C33.205 28.578 31.75 30.033 31.75 31.828C31.75 33.6229 33.205 35.078 35 35.078ZM41.5 26.4113C41.5 27.0096 41.0149 27.4946 40.4166 27.4946C39.8183 27.4946 39.3333 27.0096 39.3333 26.4113C39.3333 25.813 39.8183 25.328 40.4166 25.328C41.0149 25.328 41.5 25.813 41.5 26.4113Z" fill="#2C223A"/>
</svg>
