<svg width="218" height="107" viewBox="0 0 218 107" fill="none" xmlns="http://www.w3.org/2000/svg">
<path d="M108.42 64.5945C104.515 64.5945 101.561 65.9913 99.6082 68.3357V56.364H94.2009V92.2793H100.309V78.412C100.309 71.8774 103.563 70.2313 106.618 70.2313C112.425 70.2313 112.976 75.9677 112.976 79.3098V92.2793H119.084V77.2148C119.084 74.0223 118.383 64.5945 108.42 64.5945Z" fill="#2C223A"/>
<path d="M130.598 80.507H150.125C150.826 70.78 145.919 64.5945 137.558 64.5945C129.597 64.5945 124.09 70.2811 124.09 79.1103C124.09 87.291 129.697 93.0275 137.858 93.0275C143.115 93.0275 147.771 90.2341 149.824 85.3456L143.866 83.5498C142.715 86.044 140.512 87.3908 137.558 87.3908C133.452 87.3908 131.049 84.9466 130.598 80.507ZM137.808 69.8322C141.513 69.8322 143.466 71.7277 144.016 75.9178H130.749C131.45 71.9273 133.753 69.8322 137.808 69.8322Z" fill="#2C223A"/>
<path d="M156.211 92.2793H162.219V55.6157H156.211V92.2793Z" fill="#2C223A"/>
<path d="M170.243 92.2793H176.251V55.6157H170.243V92.2793Z" fill="#2C223A"/>
<path d="M201.599 56.364V66.6896C199.797 65.3428 197.544 64.5945 194.84 64.5945C187.18 64.5945 182.273 70.6303 182.273 78.811C182.273 86.892 187.13 93.0275 194.64 93.0275C197.794 93.0275 200.347 92.0298 202.3 90.3338V92.2793H207.657V56.364H201.599ZM195.541 87.6402C190.835 87.6402 188.682 83.7494 188.682 78.811C188.682 73.9226 190.885 69.9818 195.741 69.9818C200.347 69.9818 202.3 73.5734 202.3 78.811C202.3 84.0487 200.397 87.6402 195.541 87.6402Z" fill="#2C223A"/>
<path d="M35.0389 77.7301C38.025 84.748 23.8941 87.6026 30.2488 99.5536C36.6035 111.505 74.5789 110.465 73.5359 76.6909C72.4928 42.9164 45.725 25.3425 30.1603 1.34773L29.8236 0.828125C41.8189 27.3281 29.3021 41.2739 20.436 46.5536C-15.8625 68.1693 3.74711 99.5536 21.4791 106.828C19.393 103.191 15.1164 93.6301 14.6992 84.485C14.282 75.3399 19.393 73.0536 21.4791 72.534C23.5652 72.0144 31.9278 70.4183 35.0389 77.7301Z" fill="url(#paint0_linear)"/>
<path d="M218 89.1621C218 90.8839 216.599 92.2797 214.871 92.2797C213.143 92.2797 211.742 90.8839 211.742 89.1621C211.742 87.4403 213.143 86.0444 214.871 86.0444C216.599 86.0444 218 87.4403 218 89.1621Z" fill="#2C223A"/>
<defs>
<linearGradient id="paint0_linear" x1="25.5638" y1="-22.4059" x2="51.4434" y2="78.9368" gradientUnits="userSpaceOnUse">
<stop stop-color="#F06517"/>
<stop offset="1" stop-color="#4C3A63"/>
</linearGradient>
</defs>
</svg>
