<svg width="98" height="48" viewBox="0 0 98 48" fill="none" xmlns="http://www.w3.org/2000/svg">
<path d="M48.7392 28.772C46.9836 28.772 45.6557 29.4022 44.7779 30.46V25.0583H42.3472V41.2635H45.093V35.0065C45.093 32.058 46.556 31.3153 47.9289 31.3153C50.5398 31.3153 50.7874 33.9036 50.7874 35.4116V41.2635H53.5332V34.4663C53.5332 33.0259 53.2181 28.772 48.7392 28.772Z" fill="#2C223A"/>
<path d="M58.7094 35.9518H67.4872C67.8023 31.5629 65.5966 28.772 61.8379 28.772C58.2592 28.772 55.7834 31.3378 55.7834 35.3216C55.7834 39.0128 58.3042 41.6011 61.9729 41.6011C64.3362 41.6011 66.4293 40.3407 67.3521 38.135L64.6738 37.3247C64.1561 38.4501 63.1658 39.0578 61.8379 39.0578C59.9923 39.0578 58.9119 37.9549 58.7094 35.9518ZM61.9504 31.1352C63.6159 31.1352 64.4937 31.9905 64.7413 33.8811H58.7769C59.092 32.0806 60.1273 31.1352 61.9504 31.1352Z" fill="#2C223A"/>
<path d="M70.2232 41.2635H72.924V24.7207H70.2232V41.2635Z" fill="#2C223A"/>
<path d="M76.5313 41.2635H79.2322V24.7207H76.5313V41.2635Z" fill="#2C223A"/>
<path d="M90.627 25.0583V29.7173C89.8167 29.1096 88.8039 28.772 87.5885 28.772C84.1449 28.772 81.9392 31.4954 81.9392 35.1865C81.9392 38.8327 84.1224 41.6011 87.4985 41.6011C88.9165 41.6011 90.0643 41.1509 90.9421 40.3857V41.2635H93.3504V25.0583H90.627ZM87.9036 39.1703C85.788 39.1703 84.8201 37.4148 84.8201 35.1865C84.8201 32.9808 85.8105 31.2028 87.9937 31.2028C90.0643 31.2028 90.9421 32.8233 90.9421 35.1865C90.9421 37.5498 90.0868 39.1703 87.9036 39.1703Z" fill="#2C223A"/>
<path d="M15.7514 34.6986C17.0938 37.8651 10.7414 39.1531 13.5981 44.5455C16.4548 49.9378 33.5263 49.4689 33.0574 34.2297C32.5885 18.9904 20.5553 11.061 13.5583 0.23445L13.4069 0C18.7993 11.9569 13.1725 18.2493 9.18685 20.6316C-7.13086 30.3847 1.68448 44.5455 9.65574 47.8278C8.71794 46.1866 6.79545 41.8727 6.60789 37.7464C6.42033 33.6201 8.71794 32.5885 9.65574 32.3541C10.5935 32.1196 14.3529 31.3994 15.7514 34.6986Z" fill="url(#paint0_linear)"/>
<path d="M97.9999 39.8569C97.9999 40.6338 97.3701 41.2636 96.5932 41.2636C95.8163 41.2636 95.1865 40.6338 95.1865 39.8569C95.1865 39.08 95.8163 38.4502 96.5932 38.4502C97.3701 38.4502 97.9999 39.08 97.9999 39.8569Z" fill="#2C223A"/>
<defs>
<linearGradient id="paint0_linear" x1="11.492" y1="-10.4833" x2="23.2069" y2="35.2223" gradientUnits="userSpaceOnUse">
<stop stop-color="#F06517"/>
<stop offset="1" stop-color="#4C3A63"/>
</linearGradient>
</defs>
</svg>
