<svg width="33" height="32" viewBox="0 0 33 32" fill="none" xmlns="http://www.w3.org/2000/svg">
<circle cx="16.083" cy="16" r="16" transform="rotate(90 16.083 16)" fill="url(#paint0_linear)"/>
<path d="M16 7C11.0567 7 7 11.0567 7 16C7 20.2183 9.95999 24.0502 13.8906 25V22.0224C13.5012 22.1077 13.1427 22.1102 12.7463 21.9933C12.2144 21.8363 11.7822 21.482 11.4614 20.9418C11.2569 20.5968 10.8945 20.2227 10.5164 20.2502L10.4238 19.1996C11.2413 19.1296 11.9485 19.6977 12.3683 20.403C12.5548 20.7167 12.7695 20.9006 13.045 20.9819C13.3112 21.0603 13.5972 21.0227 13.9303 20.905C14.0139 20.238 14.3195 19.9883 14.5504 19.6367V19.6362C12.2061 19.2866 11.2719 18.0429 10.9011 17.0613C10.4097 15.7579 10.6734 14.1296 11.5423 13.1006C11.5592 13.0805 11.5897 13.0281 11.5779 12.9914C11.1795 11.788 11.6649 10.7925 11.6828 10.6869C12.1426 10.8228 12.2173 10.5501 13.68 11.4388L13.9328 11.5906C14.0385 11.6537 14.0053 11.6177 14.111 11.6097C14.7217 11.4438 15.3655 11.3522 15.9999 11.344C16.639 11.3522 17.2787 11.4438 17.9146 11.6165L17.9965 11.6247C17.9893 11.6236 18.0187 11.6195 18.068 11.5901C19.8952 10.4834 19.8296 10.8451 20.3195 10.6858C20.3373 10.7915 20.8163 11.8032 20.4221 12.9914C20.369 13.1551 22.0062 14.6543 21.0988 17.0609C20.728 18.0429 19.7939 19.2866 17.4496 19.6362V19.6367C17.7501 20.0947 18.1112 20.3384 18.1092 21.2832V25C22.04 24.0502 24.9999 20.2183 24.9999 16C25 11.0567 20.9433 7 16 7V7Z" fill="#F5F5F5"/>
<defs>
<linearGradient id="paint0_linear" x1="16.083" y1="0" x2="16.083" y2="32" gradientUnits="userSpaceOnUse">
<stop stop-color="#F2C21C"/>
<stop offset="1" stop-color="#F06517"/>
</linearGradient>
</defs>
</svg>
