<svg width="32" height="32" viewBox="0 0 32 32" fill="none" xmlns="http://www.w3.org/2000/svg">
<circle cx="16" cy="16" r="16" transform="rotate(90 16 16)" fill="url(#paint0_linear)"/>
<g clip-path="url(#clip0)">
<path d="M24.9824 12.292C24.9402 11.3356 24.7855 10.6781 24.564 10.1084C24.3354 9.50359 23.9838 8.96213 23.5231 8.51201C23.073 8.05489 22.5279 7.69969 21.9302 7.4747C21.3571 7.25315 20.703 7.09848 19.7466 7.05632C18.7831 7.01058 18.4772 7 16.0334 7C13.5895 7 13.2836 7.01058 12.3237 7.05274C11.3672 7.09491 10.7097 7.24971 10.1401 7.47113C9.5352 7.69969 8.99374 8.05132 8.54363 8.51201C8.08651 8.96213 7.73144 9.50716 7.50632 10.1049C7.28476 10.6781 7.1301 11.3321 7.08793 12.2885C7.04219 13.252 7.03162 13.5579 7.03162 16.0018C7.03162 18.4456 7.04219 18.7515 7.08436 19.7115C7.12653 20.6679 7.28133 21.3254 7.50288 21.8952C7.73144 22.4999 8.08651 23.0414 8.54363 23.4915C8.99374 23.9486 9.53877 24.3038 10.1365 24.5288C10.7097 24.7504 11.3637 24.905 12.3202 24.9472C13.2801 24.9895 13.5861 24.9999 16.0299 24.9999C18.4738 24.9999 18.7796 24.9895 19.7396 24.9472C20.696 24.905 21.3536 24.7504 21.9232 24.5288C23.1329 24.0611 24.0893 23.1047 24.557 21.8952C24.7784 21.322 24.9332 20.6679 24.9754 19.7115C25.0175 18.7515 25.0281 18.4456 25.0281 16.0018C25.0281 13.5579 25.0245 13.252 24.9824 12.292ZM23.3614 19.6411C23.3227 20.5202 23.175 20.9949 23.052 21.3114C22.7495 22.0956 22.1271 22.7179 21.343 23.0204C21.0265 23.1434 20.5484 23.2911 19.6727 23.3297C18.7233 23.372 18.4386 23.3824 16.0369 23.3824C13.6353 23.3824 13.347 23.372 12.401 23.3297C11.5219 23.2911 11.0472 23.1434 10.7307 23.0204C10.3405 22.8761 9.98531 22.6476 9.697 22.3487C9.39812 22.0568 9.16956 21.7052 9.02533 21.315C8.90226 20.9985 8.75461 20.5202 8.71601 19.6447C8.6737 18.6953 8.66326 18.4104 8.66326 16.0088C8.66326 13.6071 8.6737 13.3188 8.71601 12.373C8.75461 11.4939 8.90226 11.0192 9.02533 10.7027C9.16956 10.3123 9.39812 9.95727 9.70057 9.66883C9.99232 9.36994 10.3439 9.14138 10.7343 8.99729C11.0508 8.87422 11.5291 8.72656 12.4046 8.68783C13.354 8.64566 13.6388 8.63508 16.0404 8.63508C18.4456 8.63508 18.7303 8.64566 19.6763 8.68783C20.5554 8.72656 21.0301 8.87422 21.3466 8.99729C21.7368 9.14138 22.092 9.36994 22.3803 9.66883C22.6792 9.96071 22.9077 10.3123 23.052 10.7027C23.175 11.0192 23.3227 11.4973 23.3614 12.373C23.4036 13.3224 23.4142 13.6071 23.4142 16.0088C23.4142 18.4104 23.4036 18.6917 23.3614 19.6411Z" fill="#FAFAFA"/>
<path d="M16.0334 11.3779C13.4806 11.3779 11.4094 13.449 11.4094 16.0019C11.4094 18.5548 13.4806 20.6258 16.0334 20.6258C18.5863 20.6258 20.6573 18.5548 20.6573 16.0019C20.6573 13.449 18.5863 11.3779 16.0334 11.3779ZM16.0334 19.0013C14.3773 19.0013 13.0339 17.6581 13.0339 16.0019C13.0339 14.3456 14.3773 13.0024 16.0334 13.0024C17.6896 13.0024 19.0328 14.3456 19.0328 16.0019C19.0328 17.6581 17.6896 19.0013 16.0334 19.0013V19.0013Z" fill="#FAFAFA"/>
<path d="M21.9197 11.1947C21.9197 11.7908 21.4364 12.2742 20.8401 12.2742C20.244 12.2742 19.7606 11.7908 19.7606 11.1947C19.7606 10.5985 20.244 10.1152 20.8401 10.1152C21.4364 10.1152 21.9197 10.5985 21.9197 11.1947V11.1947Z" fill="#FAFAFA"/>
</g>
<defs>
<linearGradient id="paint0_linear" x1="16" y1="0" x2="16" y2="32" gradientUnits="userSpaceOnUse">
<stop stop-color="#F2C21C"/>
<stop offset="1" stop-color="#F06517"/>
</linearGradient>
<clipPath id="clip0">
<rect x="7" y="7" width="18" height="18" fill="white"/>
</clipPath>
</defs>
</svg>
