<svg width="70" height="64" viewBox="0 0 70 64" fill="none" xmlns="http://www.w3.org/2000/svg">
<rect x="0.5" y="1.32812" width="69" height="62" stroke="#2C223A"/>
<path fill-rule="evenodd" clip-rule="evenodd" d="M24.886 20.8281H44.378C44.9096 20.8281 45.264 21.1843 45.264 21.7186V41.3096C45.264 41.8439 44.9096 42.2002 44.378 42.2002H24.886C24.3544 42.2002 24 41.8439 24 41.3096V21.7186C24 21.1843 24.3544 20.8281 24.886 20.8281ZM27.1887 39.083H30.2897H30.3783V28.8423H27.1887V39.083ZM28.6963 27.4173C27.7217 27.4173 26.8357 26.6159 26.8357 25.5473C26.8357 24.5677 27.6331 23.6772 28.6963 23.6772C29.6709 23.6772 30.5569 24.4787 30.5569 25.5473C30.5569 26.6159 29.7595 27.4173 28.6963 27.4173ZM38.9734 39.0839H42.163V33.5628C42.163 30.8022 41.5428 28.665 38.3532 28.665C36.7584 28.665 35.7838 29.4665 35.3408 30.2679V28.8431H32.3284V39.0839H35.518V34.008C35.518 32.6723 35.6952 31.4256 37.3786 31.4256C38.9734 31.4256 38.9734 32.9394 38.9734 34.0971V39.0839Z" fill="#4E3F3F"/>
</svg>
