<svg width="32" height="32" viewBox="0 0 32 32" fill="none" xmlns="http://www.w3.org/2000/svg">
<circle cx="16" cy="16" r="16" transform="rotate(90 16 16)" fill="url(#paint0_linear)"/>
<path d="M11.19 12.79H7.57646C7.41608 12.79 7.28613 12.92 7.28613 13.0804V24.6891C7.28613 24.8495 7.41608 24.9794 7.57646 24.9794H11.19C11.3504 24.9794 11.4803 24.8495 11.4803 24.6891V13.0804C11.4803 12.92 11.3504 12.79 11.19 12.79Z" fill="#F5F5F5"/>
<path d="M9.38448 7.01953C8.06966 7.01953 7 8.08803 7 9.4014C7 10.7153 8.06966 11.7842 9.38448 11.7842C10.6982 11.7842 11.767 10.7153 11.767 9.4014C11.7671 8.08803 10.6982 7.01953 9.38448 7.01953Z" fill="#F5F5F5"/>
<path d="M20.3812 12.502C18.9299 12.502 17.857 13.1259 17.2063 13.8348V13.0808C17.2063 12.9205 17.0763 12.7905 16.9159 12.7905H13.4554C13.295 12.7905 13.165 12.9205 13.165 13.0808V24.6895C13.165 24.8499 13.295 24.9799 13.4554 24.9799H17.061C17.2214 24.9799 17.3513 24.8499 17.3513 24.6895V18.9459C17.3513 17.0104 17.877 16.2564 19.2262 16.2564C20.6956 16.2564 20.8124 17.4652 20.8124 19.0455V24.6896C20.8124 24.85 20.9423 24.9799 21.1027 24.9799H24.7097C24.87 24.9799 25 24.85 25 24.6896V18.322C25 15.444 24.4512 12.502 20.3812 12.502Z" fill="#F5F5F5"/>
<defs>
<linearGradient id="paint0_linear" x1="16" y1="0" x2="16" y2="32" gradientUnits="userSpaceOnUse">
<stop stop-color="#F2C21C"/>
<stop offset="1" stop-color="#F06517"/>
</linearGradient>
</defs>
</svg>
